<svg
	version="1.2"
	xmlns="http://www.w3.org/2000/svg"
	viewBox="0 0 24 24"
	width="24"
	height="24"
>
	<path fill="#222" d="m0 0h24v24h-24z" />
	<path
		fill="#fff"
		fill-rule="evenodd"
		d="m12.8 5q0.6-0.3 1.3-0.3c1.5 0 2.7 1.2 2.7 2.7 0 0.7-0.3 1.3-0.7 1.8v0.2h1.4c0.7 0 1.3 0.6 1.3 1.3v4.8c0 0.7-0.6 1.3-1.3 1.3h-1.4c0 0.8-0.6 1.4-1.3 1.4h-6.8c-0.7 0-1.3-0.6-1.3-1.4v-7.9c-0.4-0.4-0.7-0.9-0.7-1.5 0-1.1 0.9-2.1 2-2.1q0.2 0 0.4 0.1c0.4-0.8 1.3-1.4 2.3-1.4q0.6 0 1 0.2 0.7 0.3 1.1 0.8zm-3.4 1.4c0 0.2-0.2 0.4-0.4 0.5-0.2 0-0.4 0-0.6-0.1q-0.2-0.1-0.4-0.1c-0.3 0-0.7 0.3-0.7 0.7 0 0.3 0.4 0.6 0.7 0.6h7.3q0.1-0.3 0.1-0.6c0-0.8-0.6-1.4-1.3-1.4q-0.4 0-0.7 0.2 0 0.3 0 0.5 0 0.2 0 0.4l-1.3-0.2q0-0.1 0-0.2c0-0.7-0.6-1.4-1.4-1.4-0.6 0-1.2 0.5-1.3 1.1zm6.7 9.1h1.4v-4.8h-1.4zm-6.7 0h1.3v-4.7h-1.3zm2.7 0h1.3v-4.7h-1.3z"
	/>
</svg>
